HIERARCHY
ROOT Hips
{
    OFFSET 0.000000 0.000000 0.000000
    CHANNELS 6 Xposition Yposition Zposition Zrotation Xrotation Yrotation
    JOINT Spine
    {
        OFFSET -0.000000 7.236184 0.000000
        CHANNELS 3 Zrotation Xrotation Yrotation
        JOINT Spine1
        {
            OFFSET -0.000000 20.420147 0.000000
            CHANNELS 3 Zrotation Xrotation Yrotation
            JOINT Neck
            {
                OFFSET -0.000000 20.336288 1.848754
                CHANNELS 3 Zrotation Xrotation Yrotation
                JOINT Head
                {
                    OFFSET -0.000000 12.354461 -1.764923
                    CHANNELS 3 Zrotation Xrotation Yrotation
                    End Site
                    {
                        OFFSET -0.000000 22.061537 0.000000
                    }
                }
            }
            JOINT LeftShoulder
            {
                OFFSET 3.573296 18.396038 -0.314103
                CHANNELS 3 Zrotation Xrotation Yrotation
                JOINT LeftArm
                {
                    OFFSET 10.880760 0.000000 0.000000
                    CHANNELS 3 Zrotation Xrotation Yrotation
                    JOINT LeftForeArm
                    {
                        OFFSET 27.185530 0.000000 0.000000
                        CHANNELS 3 Zrotation Xrotation Yrotation
                        JOINT LeftHand
                        {
                            OFFSET 27.825975 0.000000 0.000000
                            CHANNELS 3 Zrotation Xrotation Yrotation
                            End Site
                            {
                                OFFSET 13.236923 0.000000 0.000000
                            }
                        }
                    }
                }
            }
            JOINT RightShoulder
            {
                OFFSET -3.474926 18.396038 -0.314103
                CHANNELS 3 Zrotation Xrotation Yrotation
                JOINT RightArm
                {
                    OFFSET -10.880760 0.000000 0.000000
                    CHANNELS 3 Zrotation Xrotation Yrotation
                    JOINT RightForeArm
                    {
                        OFFSET -27.185530 0.000000 0.000000
                        CHANNELS 3 Zrotation Xrotation Yrotation
                        JOINT RightHand
                        {
                            OFFSET -27.825975 0.000000 0.000000
                            CHANNELS 3 Zrotation Xrotation Yrotation
                            End Site
                            {
                                OFFSET -13.236923 0.000000 0.000000
                            }
                        }
                    }
                }
            }
        }
    }
    JOINT LeftUpLeg
    {
        OFFSET 8.824615 0.000000 0.000000
        CHANNELS 3 Zrotation Xrotation Yrotation
        JOINT LeftLeg
        {
            OFFSET -0.000000 -35.111282 0.000000
            CHANNELS 3 Zrotation Xrotation Yrotation
            JOINT LeftFoot
            {
                OFFSET -0.000000 -42.324711 0.000000
                CHANNELS 3 Zrotation Xrotation Yrotation
                JOINT LeftToeBase
                {
                    OFFSET -0.000000 -5.735999 13.236923
                    CHANNELS 3 Zrotation Xrotation Yrotation
                    End Site
                    {
                        OFFSET -0.000000 0.000000 3.529846
                    }
                }
            }
        }
    }
    JOINT RightUpLeg
    {
        OFFSET -8.824615 0.000000 0.000000
        CHANNELS 3 Zrotation Xrotation Yrotation
        JOINT RightLeg
        {
            OFFSET -0.000000 -35.111282 0.000000
            CHANNELS 3 Zrotation Xrotation Yrotation
            JOINT RightFoot
            {
                OFFSET -0.000000 -42.324711 0.000000
                CHANNELS 3 Zrotation Xrotation Yrotation
                JOINT RightToeBase
                {
                    OFFSET -0.000000 -5.735999 13.236923
                    CHANNELS 3 Zrotation Xrotation Yrotation
                    End Site
                    {
                        OFFSET -0.000000 0.000000 3.529846
                    }
                }
            }
        }
    }
}
MOTION
Frames:    12
Frame Time:    0.008333
-4.107765    79.491341    112.379433    -1.943689    -14.718233    172.608398    -1.590990    -6.150068    -3.307298    4.354377    1.887932    -3.293574    8.102587    3.527225    6.284686    -1.426316    -2.203614    5.360010    7.422153    3.295110    -7.232831    -38.090759    11.581585    -44.879322    16.378597    -12.776690    -39.109161    21.627710    -6.764161    1.262566    6.748546    20.850855    -10.200136    57.019157    37.250385    11.522236    -0.070854    -5.985347    15.313017    -12.885843    -5.743839    -2.066612    17.357264    -21.973255    7.683113    -3.273699    29.350029    12.685158    -17.699778    -12.938130    -18.834652    0.585082    -1.420412    -0.650224    -16.573107    -38.179745    -14.490918    21.307428    53.810371    -14.836082    10.701317    1.137298    -11.623749    -0.860698    -9.180343    0.943769    
-4.193466    79.422623    112.376450    -1.971527    -14.712115    172.510452    -1.672669    -6.160727    -3.450774    4.254522    1.980499    -3.434284    8.175597    3.417010    6.340623    -1.426170    -2.008811    5.403980    7.472058    3.276074    -7.422987    -38.167572    11.178349    -45.082230    16.418070    -12.597270    -39.167717    21.516510    -6.588290    1.107745    6.713588    20.785015    -10.286800    57.166355    37.747723    11.367440    -0.051019    -5.834442    15.488502    -12.545551    -5.595552    -2.122254    17.394222    -22.073580    7.964827    -3.260345    29.615120    12.648274    -17.833864    -13.009959    -19.062902    0.612649    -1.434125    -0.680878    -16.474722    -38.120850    -14.225694    21.704350    53.682663    -15.385005    10.794464    1.144617    -11.563380    -0.907175    -9.468357    0.995200    
-4.264235    79.360710    112.376549    -1.970038    -14.719471    172.412186    -1.736091    -6.167292    -3.586292    4.182976    2.069316    -3.568314    8.259035    3.280656    6.395499    -1.455977    -1.809060    5.438872    7.530035    3.269040    -7.625564    -38.279747    10.813425    -45.266102    16.428089    -12.391757    -39.204792    21.394251    -6.403728    0.931951    6.679228    20.702374    -10.376380    57.277218    38.210865    11.231817    -0.027933    -5.692750    15.647175    -12.201505    -5.458633    -2.166227    17.473951    -22.169983    8.290030    -3.222308    29.860531    12.586040    -17.986700    -13.052969    -19.304295    0.643072    -1.456814    -0.714719    -16.508745    -38.122402    -14.016252    22.180632    53.619720    -15.944031    11.027956    1.242356    -11.387995    -0.956663    -9.678841    1.049853    
-4.319091    79.308533    112.379433    -1.937316    -14.739900    172.308029    -1.781199    -6.168210    -3.714005    4.144628    2.152000    -3.695868    8.351113    3.121840    6.452643    -1.516037    -1.603741    5.468614    7.595666    3.273558    -7.838315    -38.426121    10.489057    -45.424931    16.409544    -12.161747    -39.215015    21.252462    -6.212201    0.738033    6.642888    20.604143    -10.466528    57.350838    38.633953    11.116937    -0.002981    -5.557456    15.789353    -11.855502    -5.330026    -2.197647    17.599409    -22.255672    8.654833    -3.163693    30.079258    12.505388    -18.154932    -13.062642    -19.551107    0.679334    -1.491546    -0.755069    -16.672131    -38.190216    -13.869790    22.740147    53.627701    -16.505907    11.392574    1.440633    -11.105089    -1.009558    -9.797888    1.108117    
-4.356802    79.268631    112.384567    -1.872579    -14.772127    172.193451    -1.808466    -6.161590    -3.833837    4.142347    2.225429    -3.816958    8.449977    2.945813    6.514597    -1.604298    -1.392549    5.496926    7.667790    3.289273    -8.058049    -38.602020    10.208767    -45.553528    16.363270    -11.910484    -39.192558    21.084888    -6.016572    0.531110    6.602354    20.492035    -10.554420    57.389538    39.009125    11.022170    0.021995    -5.425658    15.915709    -11.512100    -5.206446    -2.215977    17.772804    -22.325085    9.051655    -3.091853    30.267197    12.415207    -18.333488    -13.035643    -19.793810    0.724479    -1.540551    -0.805320    -16.954874    -38.323444    -13.793590    23.370113    53.704567    -17.057480    11.871151    1.743219    -10.727926    -1.064526    -9.816356    1.168485    
-4.376292    79.242561    112.391304    -1.775724    -14.815080    172.064133    -1.819212    -6.146676    -3.946957    4.176759    2.287922    -3.932676    8.554144    2.757503    6.583557    -1.716815    -1.174008    5.527346    7.745812    3.315074    -8.284112    -38.801590    9.975149    -45.648457    16.289059    -11.639463    -39.130123    20.888458    -5.818525    0.315769    6.556386    20.366999    -10.638453    57.397560    39.331726    10.944982    0.045212    -5.294804    16.028215    -11.174676    -5.084839    -2.221684    17.997129    -22.375380    9.474139    -3.015406    30.425192    12.325646    -18.519297    -12.968833    -20.026829    0.780096    -1.608005    -0.867250    -17.346104    -38.517609    -13.793752    24.051491    53.842880    -17.588612    12.446695    2.150381    -10.268622    -1.118804    -9.728982    1.227885    
-4.376254    79.231514    112.398819    -1.649470    -14.866879    171.918457    -1.815766    -6.122857    -4.053304    4.246278    2.336740    -4.042797    8.661314    2.564148    6.660019    -1.848022    -0.948135    5.562188    7.827698    3.350022    -8.513435    -39.013092    9.794699    -45.707272    16.187201    -11.353967    -39.019855    20.665411    -5.622980    0.099471    6.504561    20.232067    -10.716468    57.381100    39.593655    10.882924    0.065283    -5.165956    16.127632    -10.851910    -4.965649    -2.215937    18.270695    -22.404373    9.909945    -2.943682    30.553764    12.249069    -18.707428    -12.859529    -20.245392    0.844547    -1.696170    -0.939056    -17.828733    -38.762402    -13.875696    24.746923    54.030151    -18.080385    13.092670    2.650963    -9.745846    -1.167650    -9.536104    1.281086    
-4.355578    79.235771    112.406204    -1.497756    -14.925828    171.755219    -1.801483    -6.090587    -4.153676    4.347052    2.370566    -4.147789    8.769510    2.371719    6.743810    -1.991047    -0.713419    5.603141    7.912652    3.392154    -8.745055    -39.223347    9.675044    -45.729324    16.058098    -11.058518    -38.852005    20.418043    -5.434472    -0.112157    6.447514    20.088388    -10.787706    57.347824    39.792332    10.830842    0.081296    -5.042321    16.216473    -10.551644    -4.851469    -2.201580    18.590473    -22.411427    10.348336    -2.884221    30.655386    12.197330    -18.894865    -12.704692    -20.449141    0.914173    -1.808249    -1.016684    -18.387735    -39.046642    -14.044763    25.414406    54.254341    -18.510929    13.784936    3.228927    -9.178564    -1.205826    -9.245378    1.322339    
-4.312740    79.255333    112.412521    -1.324851    -14.990052    171.573578    -1.780354    -6.049964    -4.249147    4.474534    2.388261    -4.248343    8.877957    2.185530    6.834465    -2.140719    -0.467551    5.651177    8.000404    3.440249    -8.979036    -39.417320    9.625889    -45.716080    15.903040    -10.757602    -38.614010    20.146181    -5.257903    -0.314918    6.386007    19.936430    -10.852457    57.305454    39.928379    10.783440    0.093103    -4.929115    16.298067    -10.282305    -4.746962    -2.181623    18.953289    -22.395899    10.779208    -2.843657    30.732885    12.181477    -19.080036    -12.500758    -20.639664    0.984105    -1.946648    -1.094738    -19.010798    -39.359257    -14.306444    26.008123    54.505230    -18.851664    14.501789    3.864297    -8.588495    -1.228199    -8.870465    1.346051    
-4.247317    79.289101    112.416779    -1.139081    -15.056413    171.377518    -1.757237    -6.002638    -4.339099    4.620791    2.389515    -4.343367    8.983493    2.013297    6.929084    -2.288956    -0.212806    5.705468    8.089176    3.491779    -9.211121    -39.576210    9.657458    -45.671425    15.727374    -10.461431    -38.298485    19.854172    -5.101058    -0.502279    6.322607    19.779884    -10.911025    57.261242    40.005714    10.737492    0.100359    -4.835484    16.374771    -10.057199    -4.660613    -2.159933    19.347536    -22.358206    11.183708    -2.828546    30.787611    12.211540    -19.259047    -12.249257    -20.815222    1.049320    -2.110300    -1.167641    -19.673441    -39.682880    -14.656061    26.472958    54.768150    -19.065109    15.208370    4.518580    -8.014510    -1.230197    -8.439751    1.347304    
-4.157987    79.336044    112.418190    -0.945355    -15.123244    171.168076    -1.736339    -5.949701    -4.424967    4.779881    2.374827    -4.433832    9.085873    1.858422    7.026422    -2.432491    0.052673    5.765709    8.179785    3.547004    -9.441293    -39.686977    9.776441    -45.601540    15.532796    -10.172435    -37.894108    19.539854    -4.966609    -0.672670    6.258738    19.620152    -10.965988    57.219292    40.034481    10.691612    0.103350    -4.768666    16.450653    -9.882791    -4.599397    -2.138944    19.768620    -22.299114    11.551636    -2.843910    30.822567    12.296650    -19.433516    -11.948476    -20.978025    1.107519    -2.299516    -1.232838    -20.365175    -40.007141    -15.088246    26.772156    55.032444    -19.123093    15.885036    5.163467    -7.486638    -1.208602    -7.979136    1.322678    
-4.044757    79.394188    112.416168    -0.750670    -15.188635    170.949799    -1.721447    -5.893239    -4.507136    4.943872    2.345258    -4.519748    9.183288    1.725352    7.123910    -2.566800    0.326790    5.830383    8.271763    3.604658    -9.665865    -39.739388    9.985128    -45.513668    15.322071    -9.894278    -37.397919    19.204493    -4.856492    -0.823302    6.196990    19.460384    -11.020087    57.182079    40.027554    10.646286    0.102011    -4.735550    16.529762    -9.764524    -4.569885    -2.121117    20.206791    -22.221201    11.869740    -2.893187    30.840307    12.443186    -19.604036    -11.601563    -21.128666    1.157335    -2.511673    -1.288804    -21.067999    -40.318920    -15.585964    26.875563    55.282204    -19.004210    16.503405    5.762945    -7.041778    -1.163581    -7.520553    1.272485    
